<svg width="264" height="86" viewBox="0 0 264 86" fill="none" xmlns="http://www.w3.org/2000/svg">
<path d="M43.8697 31.8099L44.5768 30.9694L44.5768 30.9694L43.8697 31.8099ZM23.169 14.395L23.876 13.5545L23.876 13.5545L23.169 14.395ZM22.2284 14.3931L21.5247 13.55V13.55L22.2284 14.3931ZM1.36132 31.8098L0.657553 30.9666L0.65755 30.9666L1.36132 31.8098ZM2.30043 70.9939L3.00534 71.8361V71.8361L2.30043 70.9939ZM16.24 59.3271L15.535 58.4849H15.535L16.24 59.3271ZM17.2201 59.3634L16.4548 60.1512H16.4548L17.2201 59.3634ZM22.2202 64.2206L22.9854 63.4328V63.4328L22.2202 64.2206ZM23.2068 64.2513L23.9216 65.0852H23.9216L23.2068 64.2513ZM45.2256 46.401C45.2721 45.7962 44.8196 45.2682 44.2148 45.2217L34.3592 44.4635C33.7545 44.417 33.2265 44.8696 33.18 45.4744C33.1334 46.0792 33.586 46.6071 34.1908 46.6537L42.9513 47.3275L42.2774 56.088C42.2309 56.6928 42.6834 57.2208 43.2882 57.2673C43.893 57.3138 44.421 56.8613 44.4675 56.2565L45.2256 46.401ZM44.1306 39.3431H45.2288V32.3702H44.1306H43.0323V39.3431H44.1306ZM43.8697 31.8099L44.5768 30.9694L23.876 13.5545L23.169 14.395L22.4619 15.2354L43.1627 32.6503L43.8697 31.8099ZM22.2284 14.3931L21.5247 13.55L0.657553 30.9666L1.36132 31.8098L2.06508 32.653L22.9322 15.2363L22.2284 14.3931ZM1.0983 32.3719H2.02656e-06V70.4324H1.0983H2.19659V32.3719H1.0983ZM2.30043 70.9939L3.00534 71.8361L16.9449 60.1693L16.24 59.3271L15.535 58.4849L1.59552 70.1516L2.30043 70.9939ZM17.2201 59.3634L16.4548 60.1512L21.4549 65.0084L22.2202 64.2206L22.9854 63.4328L17.9854 58.5756L17.2201 59.3634ZM23.2068 64.2513L23.9216 65.0852L44.8453 47.1506L44.1306 46.3167L43.4158 45.4828L22.4921 63.4174L23.2068 64.2513ZM22.2202 64.2206L21.4549 65.0084C22.1336 65.6678 23.2031 65.7011 23.9216 65.0852L23.2068 64.2513L22.4921 63.4174C22.6358 63.2943 22.8497 63.3009 22.9854 63.4328L22.2202 64.2206ZM16.24 59.3271L16.9449 60.1693C16.801 60.2897 16.5894 60.2819 16.4548 60.1512L17.2201 59.3634L17.9854 58.5756C17.3125 57.922 16.2544 57.8828 15.535 58.4849L16.24 59.3271ZM1.0983 70.4324H2.02656e-06C2.02656e-06 71.9862 1.81382 72.8334 3.00534 71.8361L2.30043 70.9939L1.59552 70.1516C1.83383 69.9522 2.19659 70.1216 2.19659 70.4324H1.0983ZM1.36132 31.8098L0.65755 30.9666C0.240866 31.3144 2.02656e-06 31.8292 2.02656e-06 32.3719H1.0983H2.19659C2.19659 32.4805 2.14842 32.5834 2.06509 32.653L1.36132 31.8098ZM23.169 14.395L23.876 13.5545C23.197 12.9833 22.2059 12.9813 21.5247 13.55L22.2284 14.3931L22.9322 15.2363C22.7959 15.3501 22.5977 15.3497 22.4619 15.2354L23.169 14.395ZM44.1306 32.3702H45.2288C45.2288 31.8299 44.9902 31.3173 44.5768 30.9694L43.8697 31.8099L43.1627 32.6503C43.08 32.5808 43.0323 32.4782 43.0323 32.3702H44.1306Z" fill="#BDA465"/>
<rect x="24.4263" y="33.416" width="4.71061" height="4.71062" rx="0.366098" fill="#BDA567" stroke="#BDA465" stroke-width="0.732197"/>
<rect x="16.5409" y="33.416" width="4.71061" height="4.71062" rx="0.366098" fill="#BDA567" stroke="#BDA465" stroke-width="0.732197"/>
<rect x="16.5409" y="41.1566" width="4.71061" height="4.71062" rx="0.366098" fill="#BDA567" stroke="#BDA465" stroke-width="0.732197"/>
<rect x="24.4263" y="41.1566" width="4.71061" height="4.71062" rx="0.366098" fill="#BDA567" stroke="#BDA465" stroke-width="0.732197"/>
<path d="M74.8946 46.36L66.5066 26.452C65.9306 25.108 65.3666 24.172 64.8146 23.644C64.2866 23.092 63.6626 22.768 62.9426 22.672V21.952C63.0386 21.952 63.2786 21.94 63.6626 21.916C64.0226 21.892 64.2866 21.88 64.4546 21.88C65.2946 21.88 66.1466 21.976 67.0106 22.168C67.8986 22.36 68.7386 22.78 69.5306 23.428C70.3226 24.076 71.0066 25.084 71.5826 26.452L77.2706 39.916L84.8666 22.24H86.7026L76.3346 46.36H74.8946ZM91.7555 46.36C89.7635 46.36 88.2395 45.916 87.1835 45.028C86.1515 44.116 85.6355 42.94 85.6355 41.5C85.6355 40.348 85.8995 39.376 86.4275 38.584C86.9795 37.768 87.9635 37.156 89.3795 36.748C90.7955 36.316 92.7875 36.1 95.3555 36.1H95.8955C95.8955 33.94 95.5955 32.44 94.9955 31.6C94.3955 30.76 93.5555 30.34 92.4755 30.34C91.6595 30.34 90.9275 30.544 90.2795 30.952C89.6315 31.36 89.1635 32.236 88.8755 33.58H86.8955C86.8955 32.956 86.9315 32.32 87.0035 31.672C87.0995 31.024 87.3635 30.46 87.7955 29.98C88.2275 29.5 88.9355 29.176 89.9195 29.008C90.9275 28.816 92.0195 28.72 93.1955 28.72C95.5475 28.72 97.3595 29.344 98.6315 30.592C99.9275 31.84 100.575 33.736 100.575 36.28V46H97.5155L96.2555 44.38H96.0755C95.9555 44.572 95.7995 44.752 95.6075 44.92C95.4395 45.088 95.2595 45.244 95.0675 45.388C94.7315 45.652 94.2875 45.88 93.7355 46.072C93.1835 46.264 92.5235 46.36 91.7555 46.36ZM92.8355 44.56C93.3875 44.56 93.8435 44.44 94.2035 44.2C94.5875 43.96 94.9115 43.696 95.1755 43.408C95.4875 43.072 95.7275 42.676 95.8955 42.22V37.72H95.3555C93.6275 37.72 92.3795 38.032 91.6115 38.656C90.8675 39.28 90.4955 40.228 90.4955 41.5C90.4955 42.508 90.6995 43.276 91.1075 43.804C91.5395 44.308 92.1155 44.56 92.8355 44.56ZM104.755 46V26.92C104.755 25.84 104.599 24.976 104.287 24.328C103.999 23.656 103.315 23.32 102.235 23.32H101.875V22.24H106.195C107.467 22.24 108.319 22.576 108.751 23.248C109.207 23.92 109.435 25.144 109.435 26.92V46H104.755ZM120.912 46.36C118.656 46.36 116.976 45.844 115.872 44.812C114.792 43.756 114.252 42.064 114.252 39.736V33.76C114.252 32.68 114.096 31.816 113.784 31.168C113.496 30.496 112.812 30.16 111.732 30.16H111.372V29.08H115.692C116.964 29.08 117.816 29.416 118.248 30.088C118.704 30.76 118.932 31.984 118.932 33.76V39.772C118.932 41.62 119.196 42.916 119.724 43.66C120.252 44.38 121.008 44.74 121.992 44.74C122.544 44.74 123.012 44.62 123.396 44.38C123.804 44.14 124.14 43.876 124.404 43.588C124.572 43.42 124.716 43.24 124.836 43.048C124.98 42.856 125.112 42.64 125.232 42.4V29.08H129.912V46H126.852L125.592 44.38H125.412C125.076 44.74 124.68 45.076 124.224 45.388C123.84 45.652 123.372 45.88 122.82 46.072C122.268 46.264 121.632 46.36 120.912 46.36ZM141.7 46.36C140.02 46.36 138.556 45.976 137.308 45.208C136.06 44.44 135.1 43.396 134.428 42.076C133.756 40.732 133.42 39.22 133.42 37.54C133.42 35.62 133.768 34.012 134.464 32.716C135.16 31.396 136.108 30.4 137.308 29.728C138.508 29.056 139.852 28.72 141.34 28.72C142.828 28.72 144.172 29.02 145.372 29.62C146.572 30.22 147.52 31.06 148.216 32.14C148.912 33.22 149.26 34.48 149.26 35.92C149.26 36.184 149.248 36.46 149.224 36.748C149.224 37.012 149.212 37.252 149.188 37.468L149.116 38.188H138.28C138.28 40.564 138.64 42.256 139.36 43.264C140.104 44.248 141.064 44.74 142.24 44.74C143.488 44.74 144.496 44.452 145.264 43.876C146.056 43.3 146.764 42.592 147.388 41.752L148.504 42.58C148.168 43.108 147.712 43.672 147.136 44.272C146.584 44.848 145.864 45.34 144.976 45.748C144.112 46.156 143.02 46.36 141.7 46.36ZM138.28 36.568H144.4C144.4 34.192 144.112 32.56 143.536 31.672C142.984 30.784 142.252 30.34 141.34 30.34C140.812 30.34 140.308 30.532 139.828 30.916C139.372 31.3 139 31.948 138.712 32.86C138.424 33.748 138.28 34.984 138.28 36.568ZM170.504 46.108L155.24 28.18V46H153.44V26.56C153.44 25.648 153.212 24.88 152.756 24.256C152.324 23.632 151.472 23.32 150.2 23.32H150.02V22.24H152.54C153.908 22.24 155.012 22.42 155.852 22.78C156.716 23.14 157.424 23.68 157.976 24.4L170.36 38.8V22.24H172.16V46.108H170.504ZM184.274 46.36C182.594 46.36 181.13 45.976 179.882 45.208C178.634 44.44 177.674 43.396 177.002 42.076C176.33 40.732 175.994 39.22 175.994 37.54C175.994 35.62 176.342 34.012 177.038 32.716C177.734 31.396 178.682 30.4 179.882 29.728C181.082 29.056 182.426 28.72 183.914 28.72C185.402 28.72 186.746 29.02 187.946 29.62C189.146 30.22 190.094 31.06 190.79 32.14C191.486 33.22 191.834 34.48 191.834 35.92C191.834 36.184 191.822 36.46 191.798 36.748C191.798 37.012 191.786 37.252 191.762 37.468L191.69 38.188H180.854C180.854 40.564 181.214 42.256 181.934 43.264C182.678 44.248 183.638 44.74 184.814 44.74C186.062 44.74 187.07 44.452 187.838 43.876C188.63 43.3 189.338 42.592 189.962 41.752L191.078 42.58C190.742 43.108 190.286 43.672 189.71 44.272C189.158 44.848 188.438 45.34 187.55 45.748C186.686 46.156 185.594 46.36 184.274 46.36ZM180.854 36.568H186.974C186.974 34.192 186.686 32.56 186.11 31.672C185.558 30.784 184.826 30.34 183.914 30.34C183.386 30.34 182.882 30.532 182.402 30.916C181.946 31.3 181.574 31.948 181.286 32.86C180.998 33.748 180.854 34.984 180.854 36.568ZM201.222 46.36C199.734 46.36 198.51 46.228 197.55 45.964C196.614 45.7 195.906 45.34 195.426 44.884C194.994 44.476 194.742 43.888 194.67 43.12C194.598 42.352 194.562 41.512 194.562 40.6H195.822C196.014 41.752 196.482 42.736 197.226 43.552C197.97 44.344 199.062 44.74 200.502 44.74C201.846 44.74 202.782 44.512 203.31 44.056C203.838 43.576 204.102 42.988 204.102 42.292C204.102 41.596 203.79 41.044 203.166 40.636C202.542 40.204 201.774 39.784 200.862 39.376L198.99 38.584C197.55 37.96 196.422 37.252 195.606 36.46C194.79 35.668 194.382 34.684 194.382 33.508C194.382 31.948 195.03 30.76 196.326 29.944C197.622 29.128 199.254 28.72 201.222 28.72C202.71 28.72 203.922 28.852 204.858 29.116C205.818 29.38 206.538 29.74 207.018 30.196C207.45 30.604 207.702 31.192 207.774 31.96C207.846 32.728 207.882 33.568 207.882 34.48H206.622C206.43 33.328 205.962 32.356 205.218 31.564C204.474 30.748 203.382 30.34 201.942 30.34C200.862 30.34 200.082 30.58 199.602 31.06C199.122 31.516 198.882 32.092 198.882 32.788C198.882 33.436 199.11 33.964 199.566 34.372C200.022 34.756 200.646 35.116 201.438 35.452L203.598 36.352C205.254 37.048 206.502 37.78 207.342 38.548C208.182 39.292 208.602 40.3 208.602 41.572C208.602 43.132 207.906 44.32 206.514 45.136C205.122 45.952 203.358 46.36 201.222 46.36ZM217.954 46.36C216.322 46.36 215.038 45.916 214.102 45.028C213.19 44.14 212.734 42.832 212.734 41.104V30.7H210.574V29.08H212.734V25.84L214.534 23.68H217.414V29.08H221.374V30.7H217.414V41.32C217.414 42.664 217.57 43.576 217.882 44.056C218.218 44.512 218.686 44.74 219.286 44.74C219.67 44.74 220.03 44.692 220.366 44.596C220.726 44.5 221.038 44.392 221.302 44.272C221.566 44.128 221.842 43.96 222.13 43.768L222.634 44.776C222.322 45.04 221.95 45.304 221.518 45.568C221.134 45.76 220.642 45.94 220.042 46.108C219.466 46.276 218.77 46.36 217.954 46.36Z" fill="white"/>
<path d="M72.8246 69H71.7466L71.0746 66.48C70.9439 65.9947 70.7946 65.6167 70.6266 65.346C70.4586 65.0753 70.2252 64.8793 69.9266 64.758C69.6372 64.6273 69.2406 64.562 68.7366 64.562H66.4686V69H65.4606V59.2H69.6606C70.5752 59.2 71.2706 59.4287 71.7466 59.886C72.2319 60.3433 72.4746 60.9873 72.4746 61.818C72.4746 62.518 72.3066 63.078 71.9706 63.498C71.6439 63.9087 71.1772 64.1653 70.5706 64.268C70.9812 64.4173 71.2986 64.6647 71.5226 65.01C71.7559 65.3553 71.9612 65.8453 72.1386 66.48L72.8246 69ZM69.5486 63.75C70.1552 63.75 70.6266 63.5867 70.9626 63.26C71.2986 62.9333 71.4666 62.476 71.4666 61.888C71.4666 61.2907 71.2986 60.8287 70.9626 60.502C70.6266 60.1753 70.1552 60.012 69.5486 60.012H66.4686V63.75H69.5486ZM77.1654 68.398C77.5668 68.398 77.9214 68.3373 78.2294 68.216C78.5374 68.0947 78.8221 67.8987 79.0834 67.628L79.6714 68.174C79.3728 68.51 79.0181 68.7573 78.6074 68.916C78.1968 69.0747 77.6974 69.154 77.1094 69.154C76.2134 69.154 75.5134 68.944 75.0094 68.524C74.5148 68.0947 74.2674 67.4973 74.2674 66.732V64.604C74.2674 63.8853 74.5101 63.3207 74.9954 62.91C75.4901 62.49 76.1668 62.28 77.0254 62.28C77.9028 62.28 78.5748 62.4993 79.0414 62.938C79.5174 63.3767 79.7554 63.9973 79.7554 64.8C79.7554 65.3133 79.6574 65.668 79.4614 65.864C79.2748 66.0507 78.9201 66.144 78.3974 66.144H75.2054V66.732C75.2054 67.292 75.3641 67.712 75.6814 67.992C76.0081 68.2627 76.5028 68.398 77.1654 68.398ZM77.0114 63.022C76.4514 63.022 76.0081 63.1713 75.6814 63.47C75.3641 63.7593 75.2054 64.156 75.2054 64.66V65.458H78.0054C78.3228 65.458 78.5374 65.4067 78.6494 65.304C78.7614 65.192 78.8174 64.9867 78.8174 64.688C78.8174 64.1653 78.6588 63.7593 78.3414 63.47C78.0241 63.1713 77.5808 63.022 77.0114 63.022ZM86.6181 67.81C86.6181 67.978 86.6461 68.118 86.7021 68.23C86.7674 68.3327 86.8841 68.454 87.0521 68.594L86.4221 69.154C86.1887 69.0233 86.0161 68.874 85.9041 68.706C85.7921 68.538 85.7267 68.3187 85.7081 68.048C85.4654 68.4027 85.1341 68.678 84.7141 68.874C84.2941 69.0607 83.8227 69.154 83.3001 69.154C82.5907 69.154 82.0447 68.9907 81.6621 68.664C81.2794 68.328 81.0881 67.8473 81.0881 67.222C81.0881 66.6433 81.2887 66.1907 81.6901 65.864C82.0914 65.5373 82.6981 65.3273 83.5101 65.234L84.6021 65.108C84.9101 65.0707 85.1387 65.024 85.2881 64.968C85.4467 64.912 85.5541 64.8327 85.6101 64.73C85.6661 64.618 85.6894 64.464 85.6801 64.268C85.5961 63.4 84.9894 62.966 83.8601 62.966C83.4401 62.966 83.0807 63.036 82.7821 63.176C82.4834 63.3067 82.2267 63.5167 82.0121 63.806L81.3681 63.33C81.8067 62.6207 82.6374 62.266 83.8601 62.266C84.7561 62.266 85.4374 62.4573 85.9041 62.84C86.3801 63.2227 86.6181 63.7733 86.6181 64.492V67.81ZM83.5101 68.426C84.1634 68.426 84.6907 68.258 85.0921 67.922C85.4934 67.586 85.6941 67.1427 85.6941 66.592V65.458C85.5821 65.542 85.4467 65.6073 85.2881 65.654C85.1294 65.6913 84.9101 65.724 84.6301 65.752L83.5941 65.864C83.0621 65.9293 82.6561 66.0787 82.3761 66.312C82.1054 66.536 81.9701 66.8347 81.9701 67.208C81.9701 68.02 82.4834 68.426 83.5101 68.426ZM89.4011 69.154C89.1118 68.9953 88.9111 68.818 88.7991 68.622C88.6964 68.4167 88.6451 68.1367 88.6451 67.782V60.194C88.6451 60.0167 88.6124 59.8767 88.5471 59.774C88.4911 59.662 88.3791 59.5407 88.2111 59.41L88.8271 58.85C89.1164 59.0087 89.3124 59.1907 89.4151 59.396C89.5271 59.592 89.5831 59.8673 89.5831 60.222V67.81C89.5831 67.978 89.6111 68.118 89.6671 68.23C89.7324 68.3327 89.8491 68.454 90.0171 68.594L89.4011 69.154ZM98.3654 69C97.2734 69 96.4614 68.762 95.9294 68.286C95.4067 67.8007 95.1454 67.0633 95.1454 66.074V62.126C95.1454 61.1367 95.4067 60.404 95.9294 59.928C96.4614 59.4427 97.2734 59.2 98.3654 59.2H101.739V60.012H98.3654C97.6094 60.012 97.0494 60.1847 96.6854 60.53C96.3307 60.8753 96.1534 61.4073 96.1534 62.126V63.694H101.025V64.506H96.1534V66.074C96.1534 66.7927 96.3307 67.3247 96.6854 67.67C97.0494 68.0153 97.6094 68.188 98.3654 68.188H101.823V69H98.3654ZM105.519 69.154C104.968 69.154 104.497 69.0653 104.105 68.888C103.722 68.7107 103.372 68.4213 103.055 68.02L103.657 67.502C103.946 67.8287 104.231 68.062 104.511 68.202C104.791 68.3327 105.127 68.398 105.519 68.398C106.079 68.398 106.503 68.3 106.793 68.104C107.082 67.908 107.227 67.6233 107.227 67.25C107.227 67.0167 107.171 66.83 107.059 66.69C106.947 66.55 106.751 66.4287 106.471 66.326C106.191 66.2233 105.766 66.1207 105.197 66.018C103.89 65.7847 103.237 65.1593 103.237 64.142C103.237 63.554 103.447 63.0967 103.867 62.77C104.296 62.434 104.884 62.266 105.631 62.266C106.163 62.266 106.625 62.3593 107.017 62.546C107.418 62.7233 107.721 62.9847 107.927 63.33L107.325 63.834C107.11 63.554 106.863 63.3487 106.583 63.218C106.312 63.0873 105.995 63.022 105.631 63.022C105.164 63.022 104.795 63.12 104.525 63.316C104.263 63.512 104.133 63.7827 104.133 64.128C104.133 64.436 104.24 64.674 104.455 64.842C104.679 65.01 105.066 65.15 105.617 65.262C106.261 65.402 106.76 65.556 107.115 65.724C107.479 65.8827 107.735 66.0833 107.885 66.326C108.043 66.5687 108.123 66.8767 108.123 67.25C108.123 67.8753 107.899 68.3513 107.451 68.678C107.012 68.9953 106.368 69.154 105.519 69.154ZM110.718 63.176V67.096C110.718 67.9267 111.082 68.342 111.81 68.342H112.608V69.084H111.81C111.11 69.084 110.597 68.9253 110.27 68.608C109.944 68.2813 109.78 67.7773 109.78 67.096V60.894C109.78 60.726 109.748 60.5907 109.682 60.488C109.626 60.376 109.514 60.25 109.346 60.11L109.976 59.55C110.256 59.7087 110.448 59.8907 110.55 60.096C110.662 60.292 110.718 60.5673 110.718 60.922V62.42H112.608V63.176H110.718ZM119.472 67.81C119.472 67.978 119.5 68.118 119.556 68.23C119.621 68.3327 119.738 68.454 119.906 68.594L119.276 69.154C119.042 69.0233 118.87 68.874 118.758 68.706C118.646 68.538 118.58 68.3187 118.562 68.048C118.319 68.4027 117.988 68.678 117.568 68.874C117.148 69.0607 116.676 69.154 116.154 69.154C115.444 69.154 114.898 68.9907 114.516 68.664C114.133 68.328 113.942 67.8473 113.942 67.222C113.942 66.6433 114.142 66.1907 114.544 65.864C114.945 65.5373 115.552 65.3273 116.364 65.234L117.456 65.108C117.764 65.0707 117.992 65.024 118.142 64.968C118.3 64.912 118.408 64.8327 118.464 64.73C118.52 64.618 118.543 64.464 118.534 64.268C118.45 63.4 117.843 62.966 116.714 62.966C116.294 62.966 115.934 63.036 115.636 63.176C115.337 63.3067 115.08 63.5167 114.866 63.806L114.222 63.33C114.66 62.6207 115.491 62.266 116.714 62.266C117.61 62.266 118.291 62.4573 118.758 62.84C119.234 63.2227 119.472 63.7733 119.472 64.492V67.81ZM116.364 68.426C117.017 68.426 117.544 68.258 117.946 67.922C118.347 67.586 118.548 67.1427 118.548 66.592V65.458C118.436 65.542 118.3 65.6073 118.142 65.654C117.983 65.6913 117.764 65.724 117.484 65.752L116.448 65.864C115.916 65.9293 115.51 66.0787 115.23 66.312C114.959 66.536 114.824 66.8347 114.824 67.208C114.824 68.02 115.337 68.426 116.364 68.426ZM122.435 63.176V67.096C122.435 67.9267 122.799 68.342 123.527 68.342H124.325V69.084H123.527C122.827 69.084 122.314 68.9253 121.987 68.608C121.66 68.2813 121.497 67.7773 121.497 67.096V60.894C121.497 60.726 121.464 60.5907 121.399 60.488C121.343 60.376 121.231 60.25 121.063 60.11L121.693 59.55C121.973 59.7087 122.164 59.8907 122.267 60.096C122.379 60.292 122.435 60.5673 122.435 60.922V62.42H124.325V63.176H122.435ZM128.558 68.398C128.959 68.398 129.314 68.3373 129.622 68.216C129.93 68.0947 130.215 67.8987 130.476 67.628L131.064 68.174C130.765 68.51 130.411 68.7573 130 68.916C129.589 69.0747 129.09 69.154 128.502 69.154C127.606 69.154 126.906 68.944 126.402 68.524C125.907 68.0947 125.66 67.4973 125.66 66.732V64.604C125.66 63.8853 125.903 63.3207 126.388 62.91C126.883 62.49 127.559 62.28 128.418 62.28C129.295 62.28 129.967 62.4993 130.434 62.938C130.91 63.3767 131.148 63.9973 131.148 64.8C131.148 65.3133 131.05 65.668 130.854 65.864C130.667 66.0507 130.313 66.144 129.79 66.144H126.598V66.732C126.598 67.292 126.757 67.712 127.074 67.992C127.401 68.2627 127.895 68.398 128.558 68.398ZM128.404 63.022C127.844 63.022 127.401 63.1713 127.074 63.47C126.757 63.7593 126.598 64.156 126.598 64.66V65.458H129.398C129.715 65.458 129.93 65.4067 130.042 65.304C130.154 65.192 130.21 64.9867 130.21 64.688C130.21 64.1653 130.051 63.7593 129.734 63.47C129.417 63.1713 128.973 63.022 128.404 63.022ZM140.138 69.154C138.84 69.154 137.851 68.8507 137.17 68.244C136.498 67.6373 136.162 66.7507 136.162 65.584V62.602C136.162 61.454 136.488 60.5767 137.142 59.97C137.804 59.354 138.756 59.046 139.998 59.046C140.81 59.046 141.505 59.1767 142.084 59.438C142.662 59.69 143.138 60.0867 143.512 60.628L142.798 61.146C142.471 60.7073 142.084 60.3853 141.636 60.18C141.197 59.9653 140.665 59.858 140.04 59.858C139.106 59.858 138.392 60.0913 137.898 60.558C137.412 61.0247 137.17 61.706 137.17 62.602V65.584C137.17 66.4893 137.417 67.1753 137.912 67.642C138.416 68.1087 139.153 68.342 140.124 68.342C140.768 68.342 141.314 68.2347 141.762 68.02C142.21 67.8053 142.597 67.4693 142.924 67.012L143.638 67.558C143.218 68.118 142.732 68.524 142.182 68.776C141.631 69.028 140.95 69.154 140.138 69.154ZM152.791 69H151.713L151.041 66.48C150.911 65.9947 150.761 65.6167 150.593 65.346C150.425 65.0753 150.192 64.8793 149.893 64.758C149.604 64.6273 149.207 64.562 148.703 64.562H146.435V69H145.427V59.2H149.627C150.542 59.2 151.237 59.4287 151.713 59.886C152.199 60.3433 152.441 60.9873 152.441 61.818C152.441 62.518 152.273 63.078 151.937 63.498C151.611 63.9087 151.144 64.1653 150.537 64.268C150.948 64.4173 151.265 64.6647 151.489 65.01C151.723 65.3553 151.928 65.8453 152.105 66.48L152.791 69ZM149.515 63.75C150.122 63.75 150.593 63.5867 150.929 63.26C151.265 62.9333 151.433 62.476 151.433 61.888C151.433 61.2907 151.265 60.8287 150.929 60.502C150.593 60.1753 150.122 60.012 149.515 60.012H146.435V63.75H149.515ZM154.724 59.2H155.326C155.737 59.2 156.068 59.2933 156.32 59.48C156.582 59.6573 156.834 59.9793 157.076 60.446L159.148 64.408L161.22 60.446C161.463 59.9793 161.71 59.6573 161.962 59.48C162.224 59.2933 162.56 59.2 162.97 59.2H163.572V69H162.62V60.208C162.49 60.2267 162.373 60.278 162.27 60.362C162.177 60.4367 162.079 60.572 161.976 60.768L159.148 66.088L156.32 60.768C156.208 60.5627 156.106 60.4227 156.012 60.348C155.919 60.264 155.807 60.2173 155.676 60.208V69H154.724V59.2Z" fill="#DED8D8"/>
</svg>
