<svg width="254" height="86" viewBox="0 0 254 86" fill="none" xmlns="http://www.w3.org/2000/svg">
<path d="M33.8969 34.3537L33.3506 35.0031L33.3506 35.0031L33.8969 34.3537ZM17.902 20.8977L18.4483 20.2483L18.4483 20.2483L17.902 20.8977ZM17.1753 20.8963L16.6315 20.2448L16.6315 20.2448L17.1753 20.8963ZM1.05185 34.3537L1.59562 35.0052L1.59562 35.0052L1.05185 34.3537ZM1.77747 64.6301L2.32214 65.2808H2.32214L1.77747 64.6301ZM12.5482 55.6155L12.0035 54.9647H12.0035L12.5482 55.6155ZM13.3055 55.6435L13.8968 55.0348L13.8968 55.0348L13.3055 55.6435ZM17.1689 59.3965L17.7602 58.7879L17.7602 58.7878L17.1689 59.3965ZM17.9313 59.4203L18.4835 60.0646L18.4835 60.0646L17.9313 59.4203ZM34.9445 45.6278C34.9805 45.1605 34.6308 44.7526 34.1635 44.7166L26.5484 44.1308C26.0811 44.0949 25.6731 44.4446 25.6372 44.9119C25.6013 45.3792 25.9509 45.7871 26.4182 45.8231L33.1872 46.3438L32.6665 53.1127C32.6306 53.58 32.9803 53.988 33.4476 54.024C33.9149 54.0599 34.3228 53.7102 34.3588 53.2429L34.9445 45.6278ZM34.0984 40.1744H34.947V34.7867H34.0984H33.2498V40.1744H34.0984ZM33.8969 34.3537L34.4432 33.7043L18.4483 20.2483L17.902 20.8977L17.3557 21.5471L33.3506 35.0031L33.8969 34.3537ZM17.1753 20.8963L16.6315 20.2448L0.508068 33.7021L1.05185 34.3537L1.59562 35.0052L17.7191 21.5478L17.1753 20.8963ZM0.848618 34.788H-3.8147e-06V64.1962H0.848618H1.69724V34.788H0.848618ZM1.77747 64.6301L2.32214 65.2808L13.0928 56.2662L12.5482 55.6155L12.0035 54.9647L1.23281 63.9793L1.77747 64.6301ZM13.3055 55.6435L12.7142 56.2522L16.5776 60.0052L17.1689 59.3965L17.7602 58.7878L13.8968 55.0348L13.3055 55.6435ZM17.9313 59.4203L18.4835 60.0646L34.6507 46.2071L34.0984 45.5627L33.5461 44.9184L17.379 58.776L17.9313 59.4203ZM17.1689 59.3965L16.5776 60.0052C17.102 60.5147 17.9284 60.5405 18.4835 60.0646L17.9313 59.4203L17.379 58.776C17.49 58.6808 17.6553 58.686 17.7602 58.7879L17.1689 59.3965ZM12.5482 55.6155L13.0928 56.2662C12.9816 56.3593 12.8181 56.3532 12.7142 56.2522L13.3055 55.6435L13.8968 55.0348C13.3769 54.5298 12.5593 54.4995 12.0035 54.9647L12.5482 55.6155ZM0.848618 64.1962H-3.8147e-06C-3.8147e-06 65.3968 1.40148 66.0514 2.32214 65.2808L1.77747 64.6301L1.23281 63.9793C1.41694 63.8252 1.69724 63.9561 1.69724 64.1962H0.848618ZM1.05185 34.3537L0.508069 33.7021C0.186103 33.9709 -3.8147e-06 34.3686 -3.8147e-06 34.788H0.848618H1.69724C1.69724 34.8719 1.66002 34.9514 1.59562 35.0052L1.05185 34.3537ZM17.902 20.8977L18.4483 20.2483C17.9236 19.8069 17.1579 19.8054 16.6315 20.2448L17.1753 20.8963L17.7191 21.5478C17.6138 21.6357 17.4606 21.6354 17.3557 21.5471L17.902 20.8977ZM34.0984 34.7867H34.947C34.947 34.3692 34.7626 33.9731 34.4432 33.7043L33.8969 34.3537L33.3506 35.0031C33.2867 34.9494 33.2498 34.8701 33.2498 34.7867H34.0984Z" fill="#C8F136"/>
<rect x="18.8735" y="35.5947" width="3.63975" height="3.63976" rx="0.282874" fill="#C8F136" stroke="#C8F136" stroke-width="0.565748"/>
<rect x="12.7807" y="35.5947" width="3.63975" height="3.63976" rx="0.282874" fill="#C8F136" stroke="#C8F136" stroke-width="0.565748"/>
<rect x="12.7807" y="41.5757" width="3.63975" height="3.63976" rx="0.282874" fill="#C8F136" stroke="#C8F136" stroke-width="0.565748"/>
<rect x="18.8735" y="41.5757" width="3.63975" height="3.63976" rx="0.282874" fill="#C8F136" stroke="#C8F136" stroke-width="0.565748"/>
<path d="M64.8624 46.36L56.4744 26.452C55.8984 25.108 55.3344 24.172 54.7824 23.644C54.2544 23.092 53.6304 22.768 52.9104 22.672V21.952C53.0064 21.952 53.2464 21.94 53.6304 21.916C53.9904 21.892 54.2544 21.88 54.4224 21.88C55.2624 21.88 56.1144 21.976 56.9784 22.168C57.8664 22.36 58.7064 22.78 59.4984 23.428C60.2904 24.076 60.9744 25.084 61.5504 26.452L67.2384 39.916L74.8344 22.24H76.6704L66.3024 46.36H64.8624ZM81.7234 46.36C79.7314 46.36 78.2074 45.916 77.1514 45.028C76.1194 44.116 75.6034 42.94 75.6034 41.5C75.6034 40.348 75.8674 39.376 76.3954 38.584C76.9474 37.768 77.9314 37.156 79.3474 36.748C80.7634 36.316 82.7554 36.1 85.3234 36.1H85.8634C85.8634 33.94 85.5634 32.44 84.9634 31.6C84.3634 30.76 83.5234 30.34 82.4434 30.34C81.6274 30.34 80.8954 30.544 80.2474 30.952C79.5994 31.36 79.1314 32.236 78.8434 33.58H76.8634C76.8634 32.956 76.8994 32.32 76.9714 31.672C77.0674 31.024 77.3314 30.46 77.7634 29.98C78.1954 29.5 78.9034 29.176 79.8874 29.008C80.8954 28.816 81.9874 28.72 83.1634 28.72C85.5154 28.72 87.3274 29.344 88.5994 30.592C89.8954 31.84 90.5434 33.736 90.5434 36.28V46H87.4834L86.2234 44.38H86.0434C85.9234 44.572 85.7674 44.752 85.5754 44.92C85.4074 45.088 85.2274 45.244 85.0354 45.388C84.6994 45.652 84.2554 45.88 83.7034 46.072C83.1514 46.264 82.4914 46.36 81.7234 46.36ZM82.8034 44.56C83.3554 44.56 83.8114 44.44 84.1714 44.2C84.5554 43.96 84.8794 43.696 85.1434 43.408C85.4554 43.072 85.6954 42.676 85.8634 42.22V37.72H85.3234C83.5954 37.72 82.3474 38.032 81.5794 38.656C80.8354 39.28 80.4634 40.228 80.4634 41.5C80.4634 42.508 80.6674 43.276 81.0754 43.804C81.5074 44.308 82.0834 44.56 82.8034 44.56ZM94.7227 46V26.92C94.7227 25.84 94.5667 24.976 94.2547 24.328C93.9667 23.656 93.2827 23.32 92.2027 23.32H91.8427V22.24H96.1627C97.4347 22.24 98.2867 22.576 98.7187 23.248C99.1747 23.92 99.4027 25.144 99.4027 26.92V46H94.7227ZM110.88 46.36C108.624 46.36 106.944 45.844 105.84 44.812C104.76 43.756 104.22 42.064 104.22 39.736V33.76C104.22 32.68 104.064 31.816 103.752 31.168C103.464 30.496 102.78 30.16 101.7 30.16H101.34V29.08H105.66C106.932 29.08 107.784 29.416 108.216 30.088C108.672 30.76 108.9 31.984 108.9 33.76V39.772C108.9 41.62 109.164 42.916 109.692 43.66C110.22 44.38 110.976 44.74 111.96 44.74C112.512 44.74 112.98 44.62 113.364 44.38C113.772 44.14 114.108 43.876 114.372 43.588C114.54 43.42 114.684 43.24 114.804 43.048C114.948 42.856 115.08 42.64 115.2 42.4V29.08H119.88V46H116.82L115.56 44.38H115.38C115.044 44.74 114.648 45.076 114.192 45.388C113.808 45.652 113.34 45.88 112.788 46.072C112.236 46.264 111.6 46.36 110.88 46.36ZM131.667 46.36C129.987 46.36 128.523 45.976 127.275 45.208C126.027 44.44 125.067 43.396 124.395 42.076C123.723 40.732 123.387 39.22 123.387 37.54C123.387 35.62 123.735 34.012 124.431 32.716C125.127 31.396 126.075 30.4 127.275 29.728C128.475 29.056 129.819 28.72 131.307 28.72C132.795 28.72 134.139 29.02 135.339 29.62C136.539 30.22 137.487 31.06 138.183 32.14C138.879 33.22 139.227 34.48 139.227 35.92C139.227 36.184 139.215 36.46 139.191 36.748C139.191 37.012 139.179 37.252 139.155 37.468L139.083 38.188H128.247C128.247 40.564 128.607 42.256 129.327 43.264C130.071 44.248 131.031 44.74 132.207 44.74C133.455 44.74 134.463 44.452 135.231 43.876C136.023 43.3 136.731 42.592 137.355 41.752L138.471 42.58C138.135 43.108 137.679 43.672 137.103 44.272C136.551 44.848 135.831 45.34 134.943 45.748C134.079 46.156 132.987 46.36 131.667 46.36ZM128.247 36.568H134.367C134.367 34.192 134.079 32.56 133.503 31.672C132.951 30.784 132.219 30.34 131.307 30.34C130.779 30.34 130.275 30.532 129.795 30.916C129.339 31.3 128.967 31.948 128.679 32.86C128.391 33.748 128.247 34.984 128.247 36.568ZM160.472 46.108L145.208 28.18V46H143.408V26.56C143.408 25.648 143.18 24.88 142.724 24.256C142.292 23.632 141.44 23.32 140.168 23.32H139.988V22.24H142.508C143.876 22.24 144.98 22.42 145.82 22.78C146.684 23.14 147.392 23.68 147.944 24.4L160.328 38.8V22.24H162.128V46.108H160.472ZM174.242 46.36C172.562 46.36 171.098 45.976 169.85 45.208C168.602 44.44 167.642 43.396 166.97 42.076C166.298 40.732 165.962 39.22 165.962 37.54C165.962 35.62 166.31 34.012 167.006 32.716C167.702 31.396 168.65 30.4 169.85 29.728C171.05 29.056 172.394 28.72 173.882 28.72C175.37 28.72 176.714 29.02 177.914 29.62C179.114 30.22 180.062 31.06 180.758 32.14C181.454 33.22 181.802 34.48 181.802 35.92C181.802 36.184 181.79 36.46 181.766 36.748C181.766 37.012 181.754 37.252 181.73 37.468L181.658 38.188H170.822C170.822 40.564 171.182 42.256 171.902 43.264C172.646 44.248 173.606 44.74 174.782 44.74C176.03 44.74 177.038 44.452 177.806 43.876C178.598 43.3 179.306 42.592 179.93 41.752L181.046 42.58C180.71 43.108 180.254 43.672 179.678 44.272C179.126 44.848 178.406 45.34 177.518 45.748C176.654 46.156 175.562 46.36 174.242 46.36ZM170.822 36.568H176.942C176.942 34.192 176.654 32.56 176.078 31.672C175.526 30.784 174.794 30.34 173.882 30.34C173.354 30.34 172.85 30.532 172.37 30.916C171.914 31.3 171.542 31.948 171.254 32.86C170.966 33.748 170.822 34.984 170.822 36.568ZM191.19 46.36C189.702 46.36 188.478 46.228 187.518 45.964C186.582 45.7 185.874 45.34 185.394 44.884C184.962 44.476 184.71 43.888 184.638 43.12C184.566 42.352 184.53 41.512 184.53 40.6H185.79C185.982 41.752 186.45 42.736 187.194 43.552C187.938 44.344 189.03 44.74 190.47 44.74C191.814 44.74 192.75 44.512 193.278 44.056C193.806 43.576 194.07 42.988 194.07 42.292C194.07 41.596 193.758 41.044 193.134 40.636C192.51 40.204 191.742 39.784 190.83 39.376L188.958 38.584C187.518 37.96 186.39 37.252 185.574 36.46C184.758 35.668 184.35 34.684 184.35 33.508C184.35 31.948 184.998 30.76 186.294 29.944C187.59 29.128 189.222 28.72 191.19 28.72C192.678 28.72 193.89 28.852 194.826 29.116C195.786 29.38 196.506 29.74 196.986 30.196C197.418 30.604 197.67 31.192 197.742 31.96C197.814 32.728 197.85 33.568 197.85 34.48H196.59C196.398 33.328 195.93 32.356 195.186 31.564C194.442 30.748 193.35 30.34 191.91 30.34C190.83 30.34 190.05 30.58 189.57 31.06C189.09 31.516 188.85 32.092 188.85 32.788C188.85 33.436 189.078 33.964 189.534 34.372C189.99 34.756 190.614 35.116 191.406 35.452L193.566 36.352C195.222 37.048 196.47 37.78 197.31 38.548C198.15 39.292 198.57 40.3 198.57 41.572C198.57 43.132 197.874 44.32 196.482 45.136C195.09 45.952 193.326 46.36 191.19 46.36ZM207.922 46.36C206.29 46.36 205.006 45.916 204.07 45.028C203.158 44.14 202.702 42.832 202.702 41.104V30.7H200.542V29.08H202.702V25.84L204.502 23.68H207.382V29.08H211.342V30.7H207.382V41.32C207.382 42.664 207.538 43.576 207.85 44.056C208.186 44.512 208.654 44.74 209.254 44.74C209.638 44.74 209.998 44.692 210.334 44.596C210.694 44.5 211.006 44.392 211.27 44.272C211.534 44.128 211.81 43.96 212.098 43.768L212.602 44.776C212.29 45.04 211.918 45.304 211.486 45.568C211.102 45.76 210.61 45.94 210.01 46.108C209.434 46.276 208.738 46.36 207.922 46.36Z" fill="white"/>
<path d="M62.7924 69H61.7144L61.0424 66.48C60.9118 65.9947 60.7624 65.6167 60.5944 65.346C60.4264 65.0753 60.1931 64.8793 59.8944 64.758C59.6051 64.6273 59.2084 64.562 58.7044 64.562H56.4364V69H55.4284V59.2H59.6284C60.5431 59.2 61.2384 59.4287 61.7144 59.886C62.1998 60.3433 62.4424 60.9873 62.4424 61.818C62.4424 62.518 62.2744 63.078 61.9384 63.498C61.6118 63.9087 61.1451 64.1653 60.5384 64.268C60.9491 64.4173 61.2664 64.6647 61.4904 65.01C61.7238 65.3553 61.9291 65.8453 62.1064 66.48L62.7924 69ZM59.5164 63.75C60.1231 63.75 60.5944 63.5867 60.9304 63.26C61.2664 62.9333 61.4344 62.476 61.4344 61.888C61.4344 61.2907 61.2664 60.8287 60.9304 60.502C60.5944 60.1753 60.1231 60.012 59.5164 60.012H56.4364V63.75H59.5164ZM67.1333 68.398C67.5346 68.398 67.8893 68.3373 68.1973 68.216C68.5053 68.0947 68.79 67.8987 69.0513 67.628L69.6393 68.174C69.3406 68.51 68.986 68.7573 68.5753 68.916C68.1646 69.0747 67.6653 69.154 67.0773 69.154C66.1813 69.154 65.4813 68.944 64.9773 68.524C64.4826 68.0947 64.2353 67.4973 64.2353 66.732V64.604C64.2353 63.8853 64.478 63.3207 64.9633 62.91C65.458 62.49 66.1346 62.28 66.9933 62.28C67.8706 62.28 68.5426 62.4993 69.0093 62.938C69.4853 63.3767 69.7233 63.9973 69.7233 64.8C69.7233 65.3133 69.6253 65.668 69.4293 65.864C69.2426 66.0507 68.888 66.144 68.3653 66.144H65.1733V66.732C65.1733 67.292 65.332 67.712 65.6493 67.992C65.976 68.2627 66.4706 68.398 67.1333 68.398ZM66.9793 63.022C66.4193 63.022 65.976 63.1713 65.6493 63.47C65.332 63.7593 65.1733 64.156 65.1733 64.66V65.458H67.9733C68.2906 65.458 68.5053 65.4067 68.6173 65.304C68.7293 65.192 68.7853 64.9867 68.7853 64.688C68.7853 64.1653 68.6266 63.7593 68.3093 63.47C67.992 63.1713 67.5486 63.022 66.9793 63.022ZM76.5859 67.81C76.5859 67.978 76.6139 68.118 76.6699 68.23C76.7353 68.3327 76.8519 68.454 77.0199 68.594L76.3899 69.154C76.1566 69.0233 75.9839 68.874 75.8719 68.706C75.7599 68.538 75.6946 68.3187 75.6759 68.048C75.4333 68.4027 75.1019 68.678 74.6819 68.874C74.2619 69.0607 73.7906 69.154 73.2679 69.154C72.5586 69.154 72.0126 68.9907 71.6299 68.664C71.2473 68.328 71.0559 67.8473 71.0559 67.222C71.0559 66.6433 71.2566 66.1907 71.6579 65.864C72.0593 65.5373 72.6659 65.3273 73.4779 65.234L74.5699 65.108C74.8779 65.0707 75.1066 65.024 75.2559 64.968C75.4146 64.912 75.5219 64.8327 75.5779 64.73C75.6339 64.618 75.6573 64.464 75.6479 64.268C75.5639 63.4 74.9573 62.966 73.8279 62.966C73.4079 62.966 73.0486 63.036 72.7499 63.176C72.4513 63.3067 72.1946 63.5167 71.9799 63.806L71.3359 63.33C71.7746 62.6207 72.6053 62.266 73.8279 62.266C74.7239 62.266 75.4053 62.4573 75.8719 62.84C76.3479 63.2227 76.5859 63.7733 76.5859 64.492V67.81ZM73.4779 68.426C74.1313 68.426 74.6586 68.258 75.0599 67.922C75.4613 67.586 75.6619 67.1427 75.6619 66.592V65.458C75.5499 65.542 75.4146 65.6073 75.2559 65.654C75.0973 65.6913 74.8779 65.724 74.5979 65.752L73.5619 65.864C73.0299 65.9293 72.6239 66.0787 72.3439 66.312C72.0733 66.536 71.9379 66.8347 71.9379 67.208C71.9379 68.02 72.4513 68.426 73.4779 68.426ZM79.369 69.154C79.0796 68.9953 78.879 68.818 78.767 68.622C78.6643 68.4167 78.613 68.1367 78.613 67.782V60.194C78.613 60.0167 78.5803 59.8767 78.515 59.774C78.459 59.662 78.347 59.5407 78.179 59.41L78.795 58.85C79.0843 59.0087 79.2803 59.1907 79.383 59.396C79.495 59.592 79.551 59.8673 79.551 60.222V67.81C79.551 67.978 79.579 68.118 79.635 68.23C79.7003 68.3327 79.817 68.454 79.985 68.594L79.369 69.154ZM88.3332 69C87.2412 69 86.4292 68.762 85.8972 68.286C85.3746 67.8007 85.1132 67.0633 85.1132 66.074V62.126C85.1132 61.1367 85.3746 60.404 85.8972 59.928C86.4292 59.4427 87.2412 59.2 88.3332 59.2H91.7072V60.012H88.3332C87.5772 60.012 87.0172 60.1847 86.6532 60.53C86.2986 60.8753 86.1212 61.4073 86.1212 62.126V63.694H90.9932V64.506H86.1212V66.074C86.1212 66.7927 86.2986 67.3247 86.6532 67.67C87.0172 68.0153 87.5772 68.188 88.3332 68.188H91.7912V69H88.3332ZM95.4867 69.154C94.936 69.154 94.4647 69.0653 94.0727 68.888C93.69 68.7107 93.34 68.4213 93.0227 68.02L93.6247 67.502C93.914 67.8287 94.1987 68.062 94.4787 68.202C94.7587 68.3327 95.0947 68.398 95.4867 68.398C96.0467 68.398 96.4714 68.3 96.7607 68.104C97.05 67.908 97.1947 67.6233 97.1947 67.25C97.1947 67.0167 97.1387 66.83 97.0267 66.69C96.9147 66.55 96.7187 66.4287 96.4387 66.326C96.1587 66.2233 95.734 66.1207 95.1647 66.018C93.858 65.7847 93.2047 65.1593 93.2047 64.142C93.2047 63.554 93.4147 63.0967 93.8347 62.77C94.264 62.434 94.852 62.266 95.5987 62.266C96.1307 62.266 96.5927 62.3593 96.9847 62.546C97.386 62.7233 97.6894 62.9847 97.8947 63.33L97.2927 63.834C97.078 63.554 96.8307 63.3487 96.5507 63.218C96.28 63.0873 95.9627 63.022 95.5987 63.022C95.132 63.022 94.7634 63.12 94.4927 63.316C94.2314 63.512 94.1007 63.7827 94.1007 64.128C94.1007 64.436 94.208 64.674 94.4227 64.842C94.6467 65.01 95.034 65.15 95.5847 65.262C96.2287 65.402 96.728 65.556 97.0827 65.724C97.4467 65.8827 97.7034 66.0833 97.8527 66.326C98.0114 66.5687 98.0907 66.8767 98.0907 67.25C98.0907 67.8753 97.8667 68.3513 97.4187 68.678C96.98 68.9953 96.336 69.154 95.4867 69.154ZM100.686 63.176V67.096C100.686 67.9267 101.05 68.342 101.778 68.342H102.576V69.084H101.778C101.078 69.084 100.565 68.9253 100.238 68.608C99.9114 68.2813 99.748 67.7773 99.748 67.096V60.894C99.748 60.726 99.7154 60.5907 99.65 60.488C99.594 60.376 99.482 60.25 99.314 60.11L99.944 59.55C100.224 59.7087 100.415 59.8907 100.518 60.096C100.63 60.292 100.686 60.5673 100.686 60.922V62.42H102.576V63.176H100.686ZM109.439 67.81C109.439 67.978 109.467 68.118 109.523 68.23C109.589 68.3327 109.705 68.454 109.873 68.594L109.243 69.154C109.01 69.0233 108.837 68.874 108.725 68.706C108.613 68.538 108.548 68.3187 108.529 68.048C108.287 68.4027 107.955 68.678 107.535 68.874C107.115 69.0607 106.644 69.154 106.121 69.154C105.412 69.154 104.866 68.9907 104.483 68.664C104.101 68.328 103.909 67.8473 103.909 67.222C103.909 66.6433 104.11 66.1907 104.511 65.864C104.913 65.5373 105.519 65.3273 106.331 65.234L107.423 65.108C107.731 65.0707 107.96 65.024 108.109 64.968C108.268 64.912 108.375 64.8327 108.431 64.73C108.487 64.618 108.511 64.464 108.501 64.268C108.417 63.4 107.811 62.966 106.681 62.966C106.261 62.966 105.902 63.036 105.603 63.176C105.305 63.3067 105.048 63.5167 104.833 63.806L104.189 63.33C104.628 62.6207 105.459 62.266 106.681 62.266C107.577 62.266 108.259 62.4573 108.725 62.84C109.201 63.2227 109.439 63.7733 109.439 64.492V67.81ZM106.331 68.426C106.985 68.426 107.512 68.258 107.913 67.922C108.315 67.586 108.515 67.1427 108.515 66.592V65.458C108.403 65.542 108.268 65.6073 108.109 65.654C107.951 65.6913 107.731 65.724 107.451 65.752L106.415 65.864C105.883 65.9293 105.477 66.0787 105.197 66.312C104.927 66.536 104.791 66.8347 104.791 67.208C104.791 68.02 105.305 68.426 106.331 68.426ZM112.403 63.176V67.096C112.403 67.9267 112.767 68.342 113.495 68.342H114.293V69.084H113.495C112.795 69.084 112.282 68.9253 111.955 68.608C111.628 68.2813 111.465 67.7773 111.465 67.096V60.894C111.465 60.726 111.432 60.5907 111.367 60.488C111.311 60.376 111.199 60.25 111.031 60.11L111.661 59.55C111.941 59.7087 112.132 59.8907 112.235 60.096C112.347 60.292 112.403 60.5673 112.403 60.922V62.42H114.293V63.176H112.403ZM118.526 68.398C118.927 68.398 119.282 68.3373 119.59 68.216C119.898 68.0947 120.183 67.8987 120.444 67.628L121.032 68.174C120.733 68.51 120.379 68.7573 119.968 68.916C119.557 69.0747 119.058 69.154 118.47 69.154C117.574 69.154 116.874 68.944 116.37 68.524C115.875 68.0947 115.628 67.4973 115.628 66.732V64.604C115.628 63.8853 115.871 63.3207 116.356 62.91C116.851 62.49 117.527 62.28 118.386 62.28C119.263 62.28 119.935 62.4993 120.402 62.938C120.878 63.3767 121.116 63.9973 121.116 64.8C121.116 65.3133 121.018 65.668 120.822 65.864C120.635 66.0507 120.281 66.144 119.758 66.144H116.566V66.732C116.566 67.292 116.725 67.712 117.042 67.992C117.369 68.2627 117.863 68.398 118.526 68.398ZM118.372 63.022C117.812 63.022 117.369 63.1713 117.042 63.47C116.725 63.7593 116.566 64.156 116.566 64.66V65.458H119.366C119.683 65.458 119.898 65.4067 120.01 65.304C120.122 65.192 120.178 64.9867 120.178 64.688C120.178 64.1653 120.019 63.7593 119.702 63.47C119.385 63.1713 118.941 63.022 118.372 63.022ZM130.106 69.154C128.808 69.154 127.819 68.8507 127.138 68.244C126.466 67.6373 126.13 66.7507 126.13 65.584V62.602C126.13 61.454 126.456 60.5767 127.11 59.97C127.772 59.354 128.724 59.046 129.966 59.046C130.778 59.046 131.473 59.1767 132.052 59.438C132.63 59.69 133.106 60.0867 133.48 60.628L132.766 61.146C132.439 60.7073 132.052 60.3853 131.604 60.18C131.165 59.9653 130.633 59.858 130.008 59.858C129.074 59.858 128.36 60.0913 127.866 60.558C127.38 61.0247 127.138 61.706 127.138 62.602V65.584C127.138 66.4893 127.385 67.1753 127.88 67.642C128.384 68.1087 129.121 68.342 130.092 68.342C130.736 68.342 131.282 68.2347 131.73 68.02C132.178 67.8053 132.565 67.4693 132.892 67.012L133.606 67.558C133.186 68.118 132.7 68.524 132.15 68.776C131.599 69.028 130.918 69.154 130.106 69.154ZM142.759 69H141.681L141.009 66.48C140.879 65.9947 140.729 65.6167 140.561 65.346C140.393 65.0753 140.16 64.8793 139.861 64.758C139.572 64.6273 139.175 64.562 138.671 64.562H136.403V69H135.395V59.2H139.595C140.51 59.2 141.205 59.4287 141.681 59.886C142.167 60.3433 142.409 60.9873 142.409 61.818C142.409 62.518 142.241 63.078 141.905 63.498C141.579 63.9087 141.112 64.1653 140.505 64.268C140.916 64.4173 141.233 64.6647 141.457 65.01C141.691 65.3553 141.896 65.8453 142.073 66.48L142.759 69ZM139.483 63.75C140.09 63.75 140.561 63.5867 140.897 63.26C141.233 62.9333 141.401 62.476 141.401 61.888C141.401 61.2907 141.233 60.8287 140.897 60.502C140.561 60.1753 140.09 60.012 139.483 60.012H136.403V63.75H139.483ZM144.692 59.2H145.294C145.705 59.2 146.036 59.2933 146.288 59.48C146.549 59.6573 146.801 59.9793 147.044 60.446L149.116 64.408L151.188 60.446C151.431 59.9793 151.678 59.6573 151.93 59.48C152.191 59.2933 152.527 59.2 152.938 59.2H153.54V69H152.588V60.208C152.457 60.2267 152.341 60.278 152.238 60.362C152.145 60.4367 152.047 60.572 151.944 60.768L149.116 66.088L146.288 60.768C146.176 60.5627 146.073 60.4227 145.98 60.348C145.887 60.264 145.775 60.2173 145.644 60.208V69H144.692V59.2Z" fill="#DED8D8"/>
</svg>
